<?xml version="1.0" encoding="UTF-8"?>
<svg id="Vrstva_2" data-name="Vrstva 2" xmlns="http://www.w3.org/2000/svg" viewBox="0 0 18.15 13.43">
  <defs>
    <style>
      .cls-1 {
        fill: #0070bb;
      }
    </style>
  </defs>
  <g id="ikonky">
    <g>
      <rect class="cls-1" x="3.63" y="9.78" width="4.88" height="1.67"/>
      <path class="cls-1" d="M6.07,13.43c.83,0,1.49-.67,1.49-1.49h-2.99c0,.83.67,1.49,1.49,1.49Z"/>
      <path class="cls-1" d="M13.1,6.1c-.26.18-.32.52-.15.78.15.22.16.36.14.39-.05.08.02.23-.6.07-.29-.64-.83-1-1.4-.95-.4.03-.73.26-.96.6.06-.28.1-.57.1-.87,0-1.11-.43-2.15-1.22-2.93-1.57-1.57-4.3-1.57-5.87,0-1.62,1.62-1.62,4.25,0,5.87l.16.16h5.54l.16-.16c.13-.13.23-.27.34-.42.16.05.32.08.49.08.12,0,.24-.02.35-.05.33-.1.58-.36.71-.75.08-.28.21-.4.28-.4.08.01.19.08.28.29.17.38.45.62.8.68,1,.18,1.41-.05,1.77-.61.14-.22.41-.81-.15-1.63-.17-.26-.52-.32-.78-.15ZM6.28,6.07c0,.31-.25.56-.56.56s-.56-.25-.56-.56v-.79c0-.31.25-.56.56-.56s.56.25.56.56v.79ZM7.17,6.07v-.79c0-.31.25-.56.56-.56s.56.25.56.56v.79c0,.31-.25.56-.56.56s-.56-.25-.56-.56Z"/>
      <path class="cls-1" d="M.88,8.01l-.42.19c-.28.13-.41.46-.29.74.09.21.3.33.51.33.08,0,.15-.02.23-.05l.42-.19c.28-.13.41-.46.29-.74-.13-.28-.46-.41-.74-.29Z"/>
      <path class="cls-1" d="M.36,4.59l.43.17c.07.03.13.04.2.04.23,0,.44-.14.52-.36.11-.29-.03-.61-.32-.73l-.43-.17c-.29-.11-.61.03-.73.32-.11.29.03.61.32.73Z"/>
      <path class="cls-1" d="M3.44,1.34c.09.21.3.33.51.33.08,0,.15-.02.23-.05.28-.13.41-.46.28-.74l-.19-.42c-.13-.28-.46-.41-.74-.28-.28.13-.41.46-.28.74l.19.42Z"/>
      <path class="cls-1" d="M8.04,1.52c.07.03.13.04.2.04.23,0,.44-.14.52-.36l.17-.43c.11-.29-.03-.61-.32-.73-.29-.11-.61.03-.73.32l-.17.43c-.11.29.03.61.32.73Z"/>
      <path class="cls-1" d="M11.36,4.51c.08,0,.15-.02.23-.05l.42-.19c.28-.13.41-.46.29-.74s-.46-.41-.74-.29l-.42.19c-.28.13-.41.46-.29.74.09.21.3.33.51.33Z"/>
      <path class="cls-1" d="M16.46.04c-.93,0-1.69.76-1.69,1.69v9.96c0,.93.76,1.69,1.69,1.69s1.69-.76,1.69-1.69V1.73c0-.93-.76-1.69-1.69-1.69ZM17.03,2.83v.38h-1.14v-.38h1.14ZM17.03,5.29v.38h-1.14v-.38h1.14ZM17.03,7.75v.38h-1.14v-.38h1.14ZM17.03,10.22v.38h-1.14v-.38h1.14Z"/>
    </g>
  </g>
</svg>