<?xml version="1.0" encoding="UTF-8"?>
<svg id="Vrstva_2" data-name="Vrstva 2" xmlns="http://www.w3.org/2000/svg" viewBox="0 0 10.73 6.99">
  <g id="ikonky">
    <path d="M7.23,0h-3.74C1.57,0,0,1.57,0,3.5s1.57,3.5,3.5,3.5h3.74c1.93,0,3.5-1.57,3.5-3.5s-1.57-3.5-3.5-3.5ZM4.89,3.97h-.77v.81c0,.26-.21.47-.47.47s-.47-.21-.47-.47v-.81h-.77c-.26,0-.47-.21-.47-.47s.21-.47.47-.47h.77v-.81c0-.26.21-.47.47-.47s.47.21.47.47v.81h.77c.26,0,.47.21.47.47s-.21.47-.47.47ZM7.08,4.73c-.31,0-.55-.25-.55-.55s.25-.55.55-.55.55.25.55.55-.25.55-.55.55ZM8.19,3.37c-.31,0-.56-.25-.56-.55s.25-.55.56-.55.55.25.55.55-.25.55-.55.55Z"/>
  </g>
</svg>