<?xml version="1.0" encoding="UTF-8"?>
<svg id="Vrstva_2" data-name="Vrstva 2" xmlns="http://www.w3.org/2000/svg" viewBox="0 0 9.84 9.49">
  <g id="ikonky">
    <g>
      <g>
        <rect x="6.23" y="6.53" width="2.98" height=".83" transform="translate(7.17 -3.42) rotate(45)"/>
        <path d="M8.14,8.63c-.58.58-1.52.58-2.11,0s-.58-1.52,0-2.11"/>
        <rect x="1.05" y="1.35" width="2.98" height=".83" transform="translate(2 -1.28) rotate(45)"/>
        <path d="M2.96,3.45c-.58.58-1.52.58-2.11,0S.28,1.93.86,1.35"/>
        <path d="M.85,1.34l.79.79c-.98.98-.51,3.12,1.04,4.67,1.55,1.55,3.68,2.02,4.67,1.04l.79.79c-1.46,1.46-4.21,1-6.25-1.04C-.15,5.55-.61,2.8.85,1.34Z"/>
      </g>
      <path d="M7.99,5.1c-.23,0-.42-.19-.42-.42,0-1.33-1.08-2.41-2.41-2.41-.23,0-.42-.19-.42-.42s.19-.42.42-.42c1.79,0,3.25,1.46,3.25,3.25,0,.23-.19.42-.42.42Z"/>
      <path d="M9.42,5.1c-.23,0-.42-.19-.42-.42,0-2.12-1.72-3.84-3.84-3.84-.23,0-.42-.19-.42-.42s.19-.42.42-.42c2.58,0,4.68,2.1,4.68,4.68,0,.23-.19.42-.42.42Z"/>
    </g>
  </g>
</svg>