<?xml version="1.0" encoding="UTF-8"?>
<svg id="Vrstva_2" data-name="Vrstva 2" xmlns="http://www.w3.org/2000/svg" viewBox="0 0 6.08 9.63">
  <g id="ikonky">
    <g>
      <path d="M3.04,6.7c-1.68,0-3.04-1.36-3.04-3.04h.82c0,1.22.99,2.22,2.22,2.22s2.22-.99,2.22-2.22h.82c0,1.68-1.36,3.04-3.04,3.04Z"/>
      <rect x="1.25" y="6.96" width="3.57" height="1.23"/>
      <path d="M4.13,8.54c0,.6-.49,1.09-1.09,1.09s-1.09-.49-1.09-1.09"/>
      <path d="M3.04,5.39c-1.01,0-1.82-.82-1.82-1.82v-1.74c0-1.01.82-1.82,1.82-1.82s1.82.82,1.82,1.82v1.74c0,1.01-.82,1.82-1.82,1.82ZM3.04.82c-.55,0-1,.45-1,1v1.74c0,.55.45,1,1,1s1-.45,1-1v-1.74c0-.55-.45-1-1-1Z"/>
    </g>
  </g>
</svg>