<?xml version="1.0" encoding="UTF-8"?>
<svg id="Vrstva_2" data-name="Vrstva 2" xmlns="http://www.w3.org/2000/svg" viewBox="0 0 9.07 9.07">
  <defs>
    <style>
      .cls-1 {
        fill: #fff;
      }
    </style>
  </defs>
  <g id="ikonky">
    <g>
      <rect class="cls-1" x="6.23" y="6.11" width="2.98" height=".83" transform="translate(6.87 -3.55) rotate(45)"/>
      <path class="cls-1" d="M8.14,8.21c-.58.58-1.52.58-2.11,0s-.58-1.52,0-2.11"/>
      <rect class="cls-1" x="1.05" y=".93" width="2.98" height=".83" transform="translate(1.7 -1.4) rotate(45)"/>
      <path class="cls-1" d="M2.96,3.03c-.58.58-1.52.58-2.11,0s-.58-1.52,0-2.11"/>
      <path class="cls-1" d="M.85.92l.79.79c-.98.98-.51,3.12,1.04,4.67,1.55,1.55,3.68,2.02,4.67,1.04l.79.79c-1.46,1.46-4.21,1-6.25-1.04C-.15,5.13-.61,2.38.85.92Z"/>
    </g>
  </g>
</svg>