<?xml version="1.0" encoding="UTF-8"?>
<svg id="Vrstva_2" data-name="Vrstva 2" xmlns="http://www.w3.org/2000/svg" viewBox="0 0 7.79 10.11">
  <defs>
    <style>
      .cls-1 {
        fill: #fff;
      }
    </style>
  </defs>
  <g id="ikonky">
    <g>
      <rect class="cls-1" x="2.11" y="7.44" width="3.57" height="1.23"/>
      <path class="cls-1" d="M4.99,9.01c0,.6-.49,1.09-1.09,1.09s-1.09-.49-1.09-1.09"/>
      <rect class="cls-1" x="-1.16" y="3.42" width="10.1" height=".82" transform="translate(-1.57 3.83) rotate(-44.49)"/>
      <g>
        <path class="cls-1" d="M1.68,4.14h-.82c0,.69.24,1.32.63,1.83l.59-.58c-.25-.36-.39-.79-.39-1.25Z"/>
        <path class="cls-1" d="M3.89,6.36c-.46,0-.89-.14-1.24-.38l-.59.58c.51.39,1.14.63,1.83.63,1.68,0,3.04-1.36,3.04-3.04h-.82c0,1.22-.99,2.22-2.22,2.22Z"/>
        <path class="cls-1" d="M4.89,4.05c0,.55-.45,1-1,1-.09,0-.16-.03-.24-.05l-.64.63c.26.15.56.24.89.24,1.01,0,1.82-.82,1.82-1.82v-1.08l-.82.81v.27Z"/>
        <path class="cls-1" d="M2.89,4.05v-1.74c0-.55.45-1,1-1s1,.45,1,1v.32l.77-.75c-.19-.8-.91-1.39-1.77-1.39-1.01,0-1.82.82-1.82,1.82v1.74c0,.38.12.74.32,1.03l.61-.6c-.06-.13-.11-.28-.11-.43Z"/>
      </g>
    </g>
  </g>
</svg>