<?xml version="1.0" encoding="UTF-8"?>
<svg id="Vrstva_2" data-name="Vrstva 2" xmlns="http://www.w3.org/2000/svg" viewBox="0 0 18.15 13.43">
  <defs>
    <style>
      .cls-1 {
        fill: #fff;
      }
    </style>
  </defs>
  <g id="ikonky">
    <g>
      <path class="cls-1" d="M16.46.04c-.93,0-1.69.76-1.69,1.69v9.96c0,.93.76,1.69,1.69,1.69s1.69-.76,1.69-1.69V1.73c0-.93-.76-1.69-1.69-1.69ZM16.46,1.16c.31,0,.57.25.57.57v1.1h-1.14v-1.1c0-.31.25-.57.57-.57ZM15.89,10.6v-.38h1.14v.38h-1.14ZM15.89,8.13v-.38h1.14v.38h-1.14ZM17.03,5.67h-1.14v-.38h1.14v.38Z"/>
      <rect class="cls-1" x="3.63" y="9.78" width="4.88" height="1.67"/>
      <path class="cls-1" d="M6.07,13.43c.83,0,1.49-.67,1.49-1.49h-2.99c0,.83.67,1.49,1.49,1.49Z"/>
      <path class="cls-1" d="M.88,8.01l-.42.19c-.28.13-.41.46-.28.74.09.21.3.33.51.33.08,0,.15-.02.23-.05l.42-.19c.28-.13.41-.46.28-.74-.13-.28-.46-.41-.74-.28Z"/>
      <path class="cls-1" d="M.36,4.59l.43.17c.07.03.13.04.2.04.23,0,.44-.14.52-.36.11-.29-.03-.61-.32-.73l-.43-.17c-.29-.11-.61.03-.73.32-.11.29.03.61.32.73Z"/>
      <path class="cls-1" d="M3.44,1.34c.09.21.3.33.51.33.08,0,.15-.02.23-.05.28-.13.41-.46.28-.74l-.19-.42c-.13-.28-.46-.41-.74-.28-.28.13-.41.46-.28.74l.19.42Z"/>
      <path class="cls-1" d="M8.04,1.52c.07.03.13.04.2.04.23,0,.44-.14.52-.36l.17-.43c.11-.29-.03-.61-.32-.73-.29-.11-.61.03-.73.32l-.17.43c-.11.29.03.61.32.73Z"/>
      <path class="cls-1" d="M11.37,4.51c.08,0,.15-.02.23-.05l.42-.19c.28-.13.41-.46.28-.74-.13-.28-.46-.41-.74-.28l-.42.19c-.28.13-.41.46-.28.74.09.21.3.33.51.33Z"/>
      <path class="cls-1" d="M14.24,3.73c-.26-.17-.61-.1-.78.16-1.34,2.02-2.5,2.95-3.41,3.36.1-.36.17-.74.17-1.13,0-1.11-.43-2.15-1.22-2.93-1.57-1.57-4.3-1.57-5.87,0-1.62,1.62-1.62,4.25,0,5.87l.16.16h5.54l.16-.16c.14-.14.25-.29.36-.44,1.27-.19,3.05-1.12,5.03-4.11.17-.26.1-.61-.16-.78ZM7.17,4.57c0-.31.25-.56.56-.56s.56.25.56.56v1.58c0,.31-.25.56-.56.56s-.56-.25-.56-.56v-1.58ZM6.28,6.15c0,.31-.25.56-.56.56s-.56-.25-.56-.56v-1.58c0-.31.25-.56.56-.56s.56.25.56.56v1.58Z"/>
    </g>
  </g>
</svg>