<?xml version="1.0" encoding="UTF-8"?>
<svg id="Vrstva_2" data-name="Vrstva 2" xmlns="http://www.w3.org/2000/svg" viewBox="0 0 16.72 13.69">
  <defs>
    <style>
      .cls-1 {
        fill: #fff;
      }
    </style>
  </defs>
  <g id="ikonky">
    <g>
      <path class="cls-1" d="M.88,8.28l-.42.19c-.28.13-.41.46-.28.74.09.21.3.33.51.33.08,0,.15-.02.23-.05l.42-.19c.28-.13.41-.46.28-.74-.13-.28-.46-.41-.74-.28Z"/>
      <path class="cls-1" d="M.36,4.85l.43.17c.07.03.13.04.2.04.23,0,.44-.14.52-.36.11-.29-.03-.61-.32-.73l-.43-.17c-.29-.11-.61.03-.73.32-.11.29.03.61.32.73Z"/>
      <path class="cls-1" d="M3.44,1.6c.09.21.3.33.51.33.08,0,.15-.02.23-.05.28-.13.41-.46.29-.74l-.19-.42c-.13-.28-.46-.41-.74-.29-.28.13-.41.46-.29.74l.19.42Z"/>
      <path class="cls-1" d="M8.04,1.78c.07.03.13.04.2.04.23,0,.44-.14.52-.36l.17-.43c.11-.29-.03-.61-.32-.73-.29-.11-.61.03-.73.32l-.17.43c-.11.29.03.61.32.73Z"/>
      <path class="cls-1" d="M11.36,4.78c.08,0,.15-.02.23-.05l.42-.19c.28-.13.41-.46.28-.74-.13-.28-.46-.41-.74-.28l-.42.19c-.28.13-.41.46-.28.74.09.21.3.33.51.33Z"/>
      <rect class="cls-1" x="3.63" y="10.05" width="4.88" height="1.67"/>
      <path class="cls-1" d="M6.07,13.69c.83,0,1.49-.67,1.49-1.49h-2.99c0,.83.67,1.49,1.49,1.49Z"/>
      <path class="cls-1" d="M12.74,5.99c-.99,1.45-2.37,1.38-2.64,1.35.32-1.35-.04-2.83-1.09-3.88-1.57-1.57-4.3-1.57-5.87,0-.78.78-1.22,1.83-1.22,2.93s.43,2.15,1.22,2.93l.16.16h5.54l.16-.16c.29-.29.5-.61.69-.95.05.03.1.05.16.06.02,0,.19.03.45.03.74,0,2.25-.22,3.36-1.85.18-.26.11-.61-.15-.78-.26-.17-.61-.11-.78.15ZM4.84,4.55c0-.31.25-.56.56-.56s.56.25.56.56v.79c0,.31-.25.56-.56.56s-.56-.25-.56-.56v-.79ZM5.7,8.45c-.2.08-.39.12-.57.12-.55,0-1.04-.33-1.33-.67-.33-.39-.4-.78-.21-1.08.16-.24.45-.33.75-.24.16.05.28.1.38.15.24.13.44.2.64.23.27.04.89.14.96.68.04.35-.16.62-.62.81ZM7.98,5.34c0,.31-.25.56-.56.56s-.56-.25-.56-.56v-.79c0-.31.25-.56.56-.56s.56.25.56.56v.79Z"/>
      <path class="cls-1" d="M16.42.74c-.26-.37-.65-.62-1.1-.71-.44-.09-.9,0-1.28.26h0c-.36.25-.62.63-.73,1.11h0c-.07.48.08.93.4,1.43l.02.38.76.15.25-1.31c.02-.1.12-.17.22-.15.1.02.17.12.15.22l-.25,1.31.77.15.2-.42c.46-.3.76-.68.85-1.17.08-.44-.01-.89-.27-1.25ZM14.54,1.7c-.09.06-.2.04-.26-.05l-.21-.31c-.06-.09-.03-.2.05-.26.09-.06.2-.04.26.05l.21.31c.06.09.03.2-.05.26ZM15.06,1.36c-.1-.02-.17-.12-.15-.22l.07-.37c.02-.1.12-.17.22-.15.1.02.17.12.15.22l-.07.37c-.02.1-.12.17-.22.15ZM16,1.71l-.31.21c-.09.06-.2.04-.26-.05-.06-.09-.04-.21.05-.26l.31-.21c.09-.06.2-.04.26.05.06.09.04.2-.05.26Z"/>
      <path class="cls-1" d="M13.76,3.98h0c.02.13.07.23.15.31.08.09.19.15.31.17h0s.52.1.52.1h0c.12.01.24-.01.34-.07.1-.06.18-.14.23-.25l.15-.31-1.72-.33.02.38Z"/>
    </g>
  </g>
</svg>