<?xml version="1.0" encoding="UTF-8"?>
<svg id="Vrstva_2" data-name="Vrstva 2" xmlns="http://www.w3.org/2000/svg" viewBox="0 0 20.03 13.43">
  <defs>
    <style>
      .cls-1 {
        fill: #fff;
      }
    </style>
  </defs>
  <g id="ikonky">
    <g>
      <path class="cls-1" d="M19.95,9.78c-.16-.27-.53-.36-.8-.2l-1.25.74-.76-1.24c-.16-.27-.53-.36-.8-.2-.27.16-.36.53-.2.8l.75,1.23-1.23.75c-.27.18-.36.53-.2.8.16.27.53.36.8.2l1.25-.74.76,1.24c.16.27.53.36.8.2s.36-.53.2-.8l-.75-1.23,1.23-.75c.27-.16.36-.53.2-.8Z"/>
      <path class="cls-1" d="M15.43,8.61c0-1.11-.89-2-2-2s-2,.89-2,2c0,.97.68,1.77,1.59,1.96-2.26-.27-2.96-1.93-3.17-2.75.24-.53.37-1.1.37-1.7,0-1.11-.43-2.15-1.22-2.93-1.57-1.57-4.3-1.57-5.87,0-1.62,1.62-1.62,4.25,0,5.87l.16.16h5.54l.16-.16s.05-.06.08-.09c.56,1.23,1.8,2.77,4.57,2.77.31,0,.56-.25.56-.56s-.25-.56-.56-.56c-.04,0-.07,0-.1,0,1.06-.06,1.88-.92,1.88-1.99ZM6.28,6.86c0,.31-.25.56-.56.56s-.56-.25-.56-.56v-.51c0-.31.25-.56.56-.56s.56.25.56.56v.51ZM8.29,6.86c0,.31-.25.56-.56.56s-.56-.25-.56-.56v-.51c0-.31.25-.56.56-.56s.56.25.56.56v.51ZM13.45,9.58c-.54,0-.96-.43-.96-.96-.02-.54.43-.96.96-.96s.96.43.96.96-.43.96-.96.96Z"/>
      <path class="cls-1" d="M.88,8.01l-.42.19c-.28.13-.41.46-.29.74.09.21.3.33.51.33.08,0,.15-.02.23-.05l.42-.19c.28-.13.41-.46.29-.74-.13-.28-.46-.41-.74-.29Z"/>
      <path class="cls-1" d="M.36,4.59l.43.17c.07.03.13.04.2.04.23,0,.44-.14.52-.36.11-.29-.03-.61-.32-.73l-.43-.17c-.29-.11-.61.03-.73.32-.11.29.03.61.32.73Z"/>
      <path class="cls-1" d="M3.44,1.34c.09.21.3.33.51.33.08,0,.15-.02.23-.05.28-.13.41-.46.28-.74l-.19-.42c-.13-.28-.46-.41-.74-.28-.28.13-.41.46-.28.74l.19.42Z"/>
      <path class="cls-1" d="M8.04,1.52c.07.03.13.04.2.04.23,0,.44-.14.52-.36l.17-.43c.11-.29-.03-.61-.32-.73-.29-.11-.61.03-.73.32l-.17.43c-.11.29.03.61.32.73Z"/>
      <path class="cls-1" d="M11.37,4.51c.08,0,.15-.02.23-.05l.42-.19c.28-.13.41-.46.28-.74-.13-.28-.46-.41-.74-.28l-.42.19c-.28.13-.41.46-.28.74.09.21.3.33.51.33Z"/>
      <rect class="cls-1" x="3.63" y="9.78" width="4.88" height="1.67"/>
      <path class="cls-1" d="M6.07,13.43c.83,0,1.49-.67,1.49-1.49h-2.99c0,.83.67,1.49,1.49,1.49Z"/>
    </g>
  </g>
</svg>