<?xml version="1.0" encoding="UTF-8"?>
<svg id="Vrstva_2" data-name="Vrstva 2" xmlns="http://www.w3.org/2000/svg" viewBox="0 0 13.09 13.57">
  <defs>
    <style>
      .cls-1 {
        fill: #fff;
      }
    </style>
  </defs>
  <g id="ikonky">
    <g>
      <g>
        <g id="_Radiální_opakování_" data-name="&amp;lt;Radiální opakování&amp;gt;">
          <path class="cls-1" d="M.69,9.27c-.22,0-.42-.12-.51-.33-.13-.28,0-.62.28-.74l.42-.19c.28-.13.62,0,.74.28.13.28,0,.62-.28.74l-.42.19c-.07.03-.15.05-.23.05Z"/>
        </g>
        <g id="_Radiální_opakování_-2" data-name="&amp;lt;Radiální opakování&amp;gt;">
          <path class="cls-1" d="M.99,4.79c-.07,0-.14-.01-.2-.04l-.43-.17c-.29-.11-.44-.44-.32-.73.11-.29.44-.43.73-.32l.43.17c.29.11.44.44.32.73-.09.22-.3.36-.52.36Z"/>
        </g>
        <g id="_Radiální_opakování_-3" data-name="&amp;lt;Radiální opakování&amp;gt;">
          <path class="cls-1" d="M3.95,1.67c-.22,0-.42-.12-.51-.33l-.19-.42c-.13-.28,0-.62.28-.74.28-.13.62,0,.74.28l.19.42c.13.28,0,.62-.28.74-.07.03-.15.05-.23.05Z"/>
        </g>
        <g id="_Radiální_opakování_-4" data-name="&amp;lt;Radiální opakování&amp;gt;">
          <path class="cls-1" d="M8.25,1.56c-.07,0-.14-.01-.2-.04-.29-.11-.44-.44-.32-.73l.17-.43c.11-.29.44-.43.73-.32.29.11.44.44.32.73l-.17.43c-.09.22-.3.36-.52.36Z"/>
        </g>
        <g id="_Radiální_opakování_-5" data-name="&amp;lt;Radiální opakování&amp;gt;">
          <path class="cls-1" d="M11.36,4.51c-.22,0-.42-.12-.51-.33-.13-.28,0-.62.29-.74l.42-.19c.28-.12.62,0,.74.29s0,.62-.29.74l-.42.19c-.07.03-.15.05-.23.05Z"/>
        </g>
      </g>
      <g>
        <rect class="cls-1" x="3.8" y="9.92" width="4.88" height="1.67"/>
        <path class="cls-1" d="M6.24,13.57c.83,0,1.49-.67,1.49-1.49h-2.99c0,.83.67,1.49,1.49,1.49Z"/>
        <path class="cls-1" d="M13.07,8.66c-.17-.82-1.63-1.48-2.73-1.87.02-.17.05-.34.05-.52,0-1.11-.43-2.15-1.22-2.93-1.57-1.57-4.3-1.57-5.87,0-1.62,1.62-1.62,4.25,0,5.87l.16.16h5.46c-.13-.09-.29-.2-.5-.3-.84-.39-1.42-.31-1.75-.47-.38-.18-.59-.43-.37-.91h0c-.02.06-.03.12-.03.18.02.31.28.54.59.53.59-.01,1.71.39,2.59.76.85.36,1.67.71,2.35.71.35,0,.66-.09.92-.32.28-.24.4-.57.33-.9ZM5.79,6.28c0,.31-.25.56-.56.56s-.56-.25-.56-.56v-.93c0-.31.25-.56.56-.56s.56.25.56.56v.93ZM6.91,4.48l.86-.2c.3-.07.6.12.67.42s-.12.6-.42.67l-.22.05v.85c0,.31-.25.56-.56.56s-.56-.25-.56-.56v-.82c-.09-.08-.16-.18-.19-.3-.07-.3.12-.6.42-.67ZM9.92,8.13c.04-.08.08-.17.12-.25.77.29,1.48.63,1.79.88-.37-.02-1.33-.38-1.91-.63Z"/>
      </g>
    </g>
  </g>
</svg>