<?xml version="1.0" encoding="UTF-8"?>
<svg id="Vrstva_2" data-name="Vrstva 2" xmlns="http://www.w3.org/2000/svg" viewBox="0 0 8.93 5.97">
  <defs>
    <style>
      .cls-1 {
        fill: #fff;
      }
    </style>
  </defs>
  <g id="ikonky">
    <g>
      <rect class="cls-1" x="5.16" y="2.38" width="3.51" height="1.2" transform="translate(3.93 9.9) rotate(-90)"/>
      <path class="cls-1" d="M7.86,1.91c.59,0,1.07.48,1.07,1.07s-.48,1.07-1.07,1.07"/>
      <path class="cls-1" d="M0,0v5.97h5.97V0H0ZM3.51,3.76h-1.14c-.22,0-.4-.18-.4-.4s.18-.4.4-.4h1.14c.22,0,.4.18.4.4s-.18.4-.4.4ZM3.51,2.31h-1.14c-.22,0-.4-.18-.4-.4s.18-.4.4-.4h1.14c.22,0,.4.18.4.4s-.18.4-.4.4Z"/>
    </g>
  </g>
</svg>